<?xml version="1.0" encoding="UTF-8" standalone="no"?>
<!DOCTYPE svg PUBLIC "-//W3C//DTD SVG 1.1//EN"
 "http://www.w3.org/Graphics/SVG/1.1/DTD/svg11.dtd">
<!-- Generated by graphviz version 2.47.0 (20210316.0004)
 -->
<!-- Pages: 1 -->
<svg width="153pt" height="400pt"
 viewBox="0.00 0.00 153.50 399.99" xmlns="http://www.w3.org/2000/svg" xmlns:xlink="http://www.w3.org/1999/xlink">
<g id="graph0" class="graph" transform="scale(1 1) rotate(0) translate(4 395.99)">
<polygon fill="white" stroke="transparent" points="-4,4 -4,-395.99 149.5,-395.99 149.5,4 -4,4"/>
<!-- fake0 -->
<g id="node1" class="node">
<title>fake0</title>
</g>
<!-- q1 -->
<g id="node4" class="node">
<title>q1</title>
<ellipse fill="none" stroke="black" cx="93.5" cy="-300.99" rx="27" ry="18"/>
<text text-anchor="middle" x="93.5" y="-297.29" font-family="Times,serif" font-size="14.00">q1</text>
</g>
<!-- fake0&#45;&gt;q1 -->
<g id="edge1" class="edge">
<title>fake0&#45;&gt;q1</title>
<path fill="none" stroke="black" stroke-width="2" d="M93.5,-355.81C93.5,-347.78 93.5,-338.04 93.5,-329.06"/>
<polygon fill="black" stroke="black" stroke-width="2" points="97,-329.02 93.5,-319.02 90,-329.02 97,-329.02"/>
</g>
<!-- q0 -->
<g id="node2" class="node">
<title>q0</title>
<ellipse fill="none" stroke="black" cx="70.5" cy="-116" rx="27" ry="18"/>
<text text-anchor="middle" x="70.5" y="-112.3" font-family="Times,serif" font-size="14.00">q0</text>
</g>
<!-- q3 -->
<g id="node3" class="node">
<title>q3</title>
<ellipse fill="none" stroke="black" cx="23.5" cy="-23.5" rx="19.5" ry="19.5"/>
<ellipse fill="none" stroke="black" cx="23.5" cy="-23.5" rx="23.5" ry="23.5"/>
<text text-anchor="middle" x="23.5" y="-19.8" font-family="Times,serif" font-size="14.00">q3</text>
</g>
<!-- q0&#45;&gt;q3 -->
<g id="edge4" class="edge">
<title>q0&#45;&gt;q3</title>
<path fill="none" stroke="black" d="M57.3,-100.03C52.51,-94.08 47.34,-87 43.5,-80 39.37,-72.46 35.8,-63.91 32.86,-55.81"/>
<polygon fill="black" stroke="black" points="36.14,-54.59 29.6,-46.25 29.52,-56.85 36.14,-54.59"/>
<text text-anchor="middle" x="47" y="-68.8" font-family="Times,serif" font-size="14.00">3</text>
</g>
<!-- q0&#45;&gt;q1 -->
<g id="edge2" class="edge">
<title>q0&#45;&gt;q1</title>
<path fill="none" stroke="black" d="M80.51,-132.88C83.8,-138.71 87.2,-145.48 89.5,-152 103.64,-192.16 101.16,-242.31 97.64,-272.71"/>
<polygon fill="black" stroke="black" points="94.13,-272.6 96.33,-282.96 101.07,-273.49 94.13,-272.6"/>
<text text-anchor="middle" x="103" y="-204.79" font-family="Times,serif" font-size="14.00">2</text>
</g>
<!-- q0&#45;&gt;q1 -->
<g id="edge5" class="edge">
<title>q0&#45;&gt;q1</title>
<path fill="none" stroke="black" d="M87.87,-130.26C94.43,-136.19 101.31,-143.71 105.5,-152 128.19,-196.91 124.88,-216.22 112.5,-264.99 111.62,-268.45 110.33,-271.93 108.82,-275.29"/>
<polygon fill="black" stroke="black" points="105.64,-273.82 104.17,-284.31 111.86,-277.02 105.64,-273.82"/>
<text text-anchor="middle" x="125" y="-204.79" font-family="Times,serif" font-size="14.00">1</text>
</g>
<!-- q2 -->
<g id="node5" class="node">
<title>q2</title>
<ellipse fill="none" stroke="black" cx="63.5" cy="-208.49" rx="19.5" ry="19.5"/>
<ellipse fill="none" stroke="black" cx="63.5" cy="-208.49" rx="23.5" ry="23.5"/>
<text text-anchor="middle" x="63.5" y="-204.79" font-family="Times,serif" font-size="14.00">q2</text>
</g>
<!-- q0&#45;&gt;q2 -->
<g id="edge3" class="edge">
<title>q0&#45;&gt;q2</title>
<path fill="none" stroke="black" d="M69.17,-134.11C68.29,-145.51 67.1,-160.87 66.04,-174.58"/>
<polygon fill="black" stroke="black" points="62.55,-174.42 65.26,-184.66 69.53,-174.96 62.55,-174.42"/>
<text text-anchor="middle" x="71" y="-155.8" font-family="Times,serif" font-size="14.00">0</text>
</g>
<!-- q0&#45;&gt;q2 -->
<g id="edge6" class="edge">
<title>q0&#45;&gt;q2</title>
<path fill="none" stroke="black" d="M75.99,-133.69C78.48,-143.42 80.48,-155.92 78.5,-167 77.88,-170.42 77,-173.94 75.96,-177.39"/>
<polygon fill="black" stroke="black" points="72.65,-176.28 72.74,-186.87 79.27,-178.53 72.65,-176.28"/>
<text text-anchor="middle" x="82" y="-155.8" font-family="Times,serif" font-size="14.00">1</text>
</g>
<!-- q3&#45;&gt;q0 -->
<g id="edge8" class="edge">
<title>q3&#45;&gt;q0</title>
<path fill="none" stroke="black" d="M36.01,-43.54C40.19,-50.21 44.73,-57.83 48.5,-65 52.53,-72.67 56.49,-81.24 59.91,-89.08"/>
<polygon fill="black" stroke="black" points="56.79,-90.68 63.92,-98.51 63.23,-87.94 56.79,-90.68"/>
<text text-anchor="middle" x="59" y="-68.8" font-family="Times,serif" font-size="14.00">3</text>
</g>
<!-- q3&#45;&gt;q1 -->
<g id="edge7" class="edge">
<title>q3&#45;&gt;q1</title>
<path fill="none" stroke="black" d="M19.29,-46.85C12.96,-86.17 4.41,-169.47 31.5,-231.99 39.67,-250.86 55.31,-267.95 68.83,-280.28"/>
<polygon fill="black" stroke="black" points="66.64,-283.01 76.47,-286.96 71.25,-277.74 66.64,-283.01"/>
<text text-anchor="middle" x="19" y="-155.8" font-family="Times,serif" font-size="14.00">2</text>
</g>
<!-- q1&#45;&gt;q1 -->
<g id="edge9" class="edge">
<title>q1&#45;&gt;q1</title>
<path fill="none" stroke="black" d="M118.94,-307.68C129.53,-308.15 138.5,-305.91 138.5,-300.99 138.5,-297.76 134.63,-295.69 128.99,-294.78"/>
<polygon fill="black" stroke="black" points="129.1,-291.28 118.94,-294.3 128.76,-298.27 129.1,-291.28"/>
<text text-anchor="middle" x="142" y="-297.29" font-family="Times,serif" font-size="14.00">0</text>
</g>
<!-- q1&#45;&gt;q2 -->
<g id="edge10" class="edge">
<title>q1&#45;&gt;q2</title>
<path fill="none" stroke="black" d="M87.86,-282.97C83.92,-271.11 78.56,-254.93 73.87,-240.77"/>
<polygon fill="black" stroke="black" points="77.07,-239.3 70.6,-230.91 70.42,-241.51 77.07,-239.3"/>
<text text-anchor="middle" x="84" y="-253.79" font-family="Times,serif" font-size="14.00">1</text>
</g>
<!-- q2&#45;&gt;q0 -->
<g id="edge11" class="edge">
<title>q2&#45;&gt;q0</title>
<path fill="none" stroke="black" d="M56.9,-185.78C54.66,-175.49 53.23,-163.06 55.5,-152 56.13,-148.92 57.04,-145.79 58.11,-142.71"/>
<polygon fill="black" stroke="black" points="61.42,-143.87 61.9,-133.28 54.92,-141.26 61.42,-143.87"/>
<text text-anchor="middle" x="59" y="-155.8" font-family="Times,serif" font-size="14.00">2</text>
</g>
<!-- q2&#45;&gt;q3 -->
<g id="edge12" class="edge">
<title>q2&#45;&gt;q3</title>
<path fill="none" stroke="black" d="M51.18,-188.09C42.8,-173.75 32.38,-153.43 27.5,-134 21.17,-108.79 20.46,-79.29 21.17,-57.27"/>
<polygon fill="black" stroke="black" points="24.67,-57.26 21.61,-47.11 17.68,-56.95 24.67,-57.26"/>
<text text-anchor="middle" x="31" y="-112.3" font-family="Times,serif" font-size="14.00">3</text>
</g>
<!-- q2&#45;&gt;q1 -->
<g id="edge13" class="edge">
<title>q2&#45;&gt;q1</title>
<path fill="none" stroke="black" d="M61.71,-231.99C61.64,-242.33 62.64,-254.59 66.5,-264.99 68.1,-269.32 70.45,-273.54 73.09,-277.48"/>
<polygon fill="black" stroke="black" points="70.36,-279.67 79.18,-285.54 75.95,-275.45 70.36,-279.67"/>
<text text-anchor="middle" x="70" y="-253.79" font-family="Times,serif" font-size="14.00">3</text>
</g>
</g>
</svg>
