<?xml version="1.0" encoding="UTF-8" standalone="no"?>
<!DOCTYPE svg PUBLIC "-//W3C//DTD SVG 1.1//EN"
 "http://www.w3.org/Graphics/SVG/1.1/DTD/svg11.dtd">
<!-- Generated by graphviz version 2.47.0 (20210316.0004)
 -->
<!-- Pages: 1 -->
<svg width="156pt" height="302pt"
 viewBox="0.00 0.00 156.50 302.00" xmlns="http://www.w3.org/2000/svg" xmlns:xlink="http://www.w3.org/1999/xlink">
<g id="graph0" class="graph" transform="scale(1 1) rotate(0) translate(4 298)">
<polygon fill="white" stroke="transparent" points="-4,4 -4,-298 152.5,-298 152.5,4 -4,4"/>
<!-- fake -->
<g id="node1" class="node">
<title>fake</title>
</g>
<!-- q1 -->
<g id="node3" class="node">
<title>q1</title>
<ellipse fill="none" stroke="black" cx="90.5" cy="-203" rx="27" ry="18"/>
<text text-anchor="middle" x="90.5" y="-199.3" font-family="Times,serif" font-size="14.00">q1</text>
</g>
<!-- fake&#45;&gt;q1 -->
<g id="edge1" class="edge">
<title>fake&#45;&gt;q1</title>
<path fill="none" stroke="black" stroke-width="2" d="M90.5,-257.81C90.5,-249.79 90.5,-240.04 90.5,-231.07"/>
<polygon fill="black" stroke="black" stroke-width="2" points="94,-231.03 90.5,-221.03 87,-231.03 94,-231.03"/>
</g>
<!-- q2 -->
<g id="node2" class="node">
<title>q2</title>
<ellipse fill="none" stroke="black" cx="23.5" cy="-110.5" rx="19.5" ry="19.5"/>
<ellipse fill="none" stroke="black" cx="23.5" cy="-110.5" rx="23.5" ry="23.5"/>
<text text-anchor="middle" x="23.5" y="-106.8" font-family="Times,serif" font-size="14.00">q2</text>
</g>
<!-- q2&#45;&gt;q2 -->
<g id="edge6" class="edge">
<title>q2&#45;&gt;q2</title>
<path fill="none" stroke="black" d="M45.7,-119.32C56,-120.28 65,-117.34 65,-110.5 65,-106.11 61.3,-103.33 55.94,-102.15"/>
<polygon fill="black" stroke="black" points="55.85,-98.64 45.7,-101.68 55.53,-105.64 55.85,-98.64"/>
<text text-anchor="middle" x="71.5" y="-106.8" font-family="Times,serif" font-size="14.00">s0</text>
</g>
<!-- q0 -->
<g id="node4" class="node">
<title>q0</title>
<ellipse fill="none" stroke="black" cx="68.5" cy="-18" rx="27" ry="18"/>
<text text-anchor="middle" x="68.5" y="-14.3" font-family="Times,serif" font-size="14.00">q0</text>
</g>
<!-- q2&#45;&gt;q0 -->
<g id="edge7" class="edge">
<title>q2&#45;&gt;q0</title>
<path fill="none" stroke="black" d="M33.71,-88.96C40.28,-75.74 48.88,-58.46 55.88,-44.38"/>
<polygon fill="black" stroke="black" points="59.11,-45.75 60.42,-35.24 52.84,-42.63 59.11,-45.75"/>
<text text-anchor="middle" x="57" y="-57.8" font-family="Times,serif" font-size="14.00">s1</text>
</g>
<!-- q1&#45;&gt;q2 -->
<g id="edge5" class="edge">
<title>q1&#45;&gt;q2</title>
<path fill="none" stroke="black" d="M79.13,-186.64C69.3,-173.37 54.88,-153.88 43.17,-138.08"/>
<polygon fill="black" stroke="black" points="45.76,-135.69 37,-129.74 40.14,-139.86 45.76,-135.69"/>
<text text-anchor="middle" x="70" y="-155.8" font-family="Times,serif" font-size="14.00">s1</text>
</g>
<!-- q1&#45;&gt;q1 -->
<g id="edge4" class="edge">
<title>q1&#45;&gt;q1</title>
<path fill="none" stroke="black" d="M115.94,-209.69C126.53,-210.15 135.5,-207.92 135.5,-203 135.5,-199.77 131.63,-197.7 125.99,-196.78"/>
<polygon fill="black" stroke="black" points="126.1,-193.29 115.94,-196.31 125.76,-200.28 126.1,-193.29"/>
<text text-anchor="middle" x="142" y="-199.3" font-family="Times,serif" font-size="14.00">s0</text>
</g>
<!-- q0&#45;&gt;q1 -->
<g id="edge3" class="edge">
<title>q0&#45;&gt;q1</title>
<path fill="none" stroke="black" d="M74.08,-35.83C78.33,-49.46 83.87,-69.24 86.5,-87 90.89,-116.68 91.5,-151.13 91.26,-174.52"/>
<polygon fill="black" stroke="black" points="87.76,-174.69 91.09,-184.74 94.76,-174.8 87.76,-174.69"/>
<text text-anchor="middle" x="97" y="-106.8" font-family="Times,serif" font-size="14.00">s1</text>
</g>
<!-- q0&#45;&gt;q0 -->
<g id="edge2" class="edge">
<title>q0&#45;&gt;q0</title>
<path fill="none" stroke="black" d="M93.03,-25.75C104.01,-26.49 113.5,-23.91 113.5,-18 113.5,-14.03 109.21,-11.56 103.07,-10.59"/>
<polygon fill="black" stroke="black" points="103.15,-7.09 93.03,-10.25 102.9,-14.09 103.15,-7.09"/>
<text text-anchor="middle" x="120" y="-14.3" font-family="Times,serif" font-size="14.00">s0</text>
</g>
</g>
</svg>
