<?xml version="1.0" encoding="UTF-8" standalone="no"?>
<!DOCTYPE svg PUBLIC "-//W3C//DTD SVG 1.1//EN"
 "http://www.w3.org/Graphics/SVG/1.1/DTD/svg11.dtd">
<!-- Generated by graphviz version 2.47.0 (20210316.0004)
 -->
<!-- Pages: 1 -->
<svg width="116pt" height="302pt"
 viewBox="0.00 0.00 115.55 302.00" xmlns="http://www.w3.org/2000/svg" xmlns:xlink="http://www.w3.org/1999/xlink">
<g id="graph0" class="graph" transform="scale(1 1) rotate(0) translate(4 298)">
<polygon fill="white" stroke="transparent" points="-4,4 -4,-298 111.55,-298 111.55,4 -4,4"/>
<!-- fake0 -->
<g id="node1" class="node">
<title>fake0</title>
</g>
<!-- q0 -->
<g id="node2" class="node">
<title>q0</title>
<ellipse fill="none" stroke="black" cx="30.55" cy="-203" rx="27" ry="18"/>
<text text-anchor="middle" x="30.55" y="-199.3" font-family="Times,serif" font-size="14.00">q0</text>
</g>
<!-- fake0&#45;&gt;q0 -->
<g id="edge1" class="edge">
<title>fake0&#45;&gt;q0</title>
<path fill="none" stroke="black" stroke-width="2" d="M30.55,-257.81C30.55,-249.79 30.55,-240.04 30.55,-231.07"/>
<polygon fill="black" stroke="black" stroke-width="2" points="34.05,-231.03 30.55,-221.03 27.05,-231.03 34.05,-231.03"/>
</g>
<!-- q0&#45;&gt;q0 -->
<g id="edge2" class="edge">
<title>q0&#45;&gt;q0</title>
<path fill="none" stroke="black" d="M57.34,-206.36C67.33,-206.47 75.55,-205.35 75.55,-203 75.55,-201.52 72.34,-200.53 67.49,-200.02"/>
<polygon fill="black" stroke="black" points="67.47,-196.52 57.34,-199.63 67.2,-203.52 67.47,-196.52"/>
<text text-anchor="middle" x="79.05" y="-199.3" font-family="Times,serif" font-size="14.00">0</text>
</g>
<!-- q0&#45;&gt;q0 -->
<g id="edge4" class="edge">
<title>q0&#45;&gt;q0</title>
<path fill="none" stroke="black" d="M56.1,-208.98C74.81,-211 93.55,-209.01 93.55,-203 93.55,-198.07 80.94,-195.84 66.08,-196.31"/>
<polygon fill="black" stroke="black" points="65.84,-192.82 56.1,-197.01 66.32,-199.8 65.84,-192.82"/>
<text text-anchor="middle" x="97.05" y="-199.3" font-family="Times,serif" font-size="14.00">1</text>
</g>
<!-- q1 -->
<g id="node4" class="node">
<title>q1</title>
<ellipse fill="none" stroke="black" cx="30.55" cy="-116" rx="27" ry="18"/>
<text text-anchor="middle" x="30.55" y="-112.3" font-family="Times,serif" font-size="14.00">q1</text>
</g>
<!-- q0&#45;&gt;q1 -->
<g id="edge3" class="edge">
<title>q0&#45;&gt;q1</title>
<path fill="none" stroke="black" d="M30.55,-184.8C30.55,-173.16 30.55,-157.54 30.55,-144.23"/>
<polygon fill="black" stroke="black" points="34.05,-144.17 30.55,-134.17 27.05,-144.17 34.05,-144.17"/>
<text text-anchor="middle" x="34.05" y="-155.8" font-family="Times,serif" font-size="14.00">0</text>
</g>
<!-- q2 -->
<g id="node3" class="node">
<title>q2</title>
<ellipse fill="none" stroke="black" cx="30.55" cy="-23.5" rx="19.5" ry="19.5"/>
<ellipse fill="none" stroke="black" cx="30.55" cy="-23.5" rx="23.5" ry="23.5"/>
<text text-anchor="middle" x="30.55" y="-19.8" font-family="Times,serif" font-size="14.00">q2</text>
</g>
<!-- q1&#45;&gt;q2 -->
<g id="edge5" class="edge">
<title>q1&#45;&gt;q2</title>
<path fill="none" stroke="black" d="M30.55,-97.97C30.55,-86.55 30.55,-71.13 30.55,-57.36"/>
<polygon fill="black" stroke="black" points="34.05,-57.25 30.55,-47.25 27.05,-57.25 34.05,-57.25"/>
<text text-anchor="middle" x="34.05" y="-68.8" font-family="Times,serif" font-size="14.00">1</text>
</g>
</g>
</svg>
