<?xml version="1.0" encoding="UTF-8" standalone="no"?>
<!DOCTYPE svg PUBLIC "-//W3C//DTD SVG 1.1//EN"
 "http://www.w3.org/Graphics/SVG/1.1/DTD/svg11.dtd">
<!-- Generated by graphviz version 2.47.0 (20210316.0004)
 -->
<!-- Pages: 1 -->
<svg width="151pt" height="347pt"
 viewBox="0.00 0.00 151.49 347.49" xmlns="http://www.w3.org/2000/svg" xmlns:xlink="http://www.w3.org/1999/xlink">
<g id="graph0" class="graph" transform="scale(1 1) rotate(0) translate(4 343.49)">
<polygon fill="white" stroke="transparent" points="-4,4 -4,-343.49 147.49,-343.49 147.49,4 -4,4"/>
<!-- fake -->
<g id="node1" class="node">
<title>fake</title>
</g>
<!-- {q0} -->
<g id="node4" class="node">
<title>{q0}</title>
<ellipse fill="none" stroke="black" cx="34.25" cy="-248.49" rx="28.7" ry="18"/>
<text text-anchor="middle" x="34.25" y="-244.79" font-family="Times,serif" font-size="14.00">{q0}</text>
</g>
<!-- fake&#45;&gt;{q0} -->
<g id="edge1" class="edge">
<title>fake&#45;&gt;{q0}</title>
<path fill="none" stroke="black" stroke-width="2" d="M34.25,-303.31C34.25,-295.28 34.25,-285.54 34.25,-276.56"/>
<polygon fill="black" stroke="black" stroke-width="2" points="37.75,-276.52 34.25,-266.52 30.75,-276.52 37.75,-276.52"/>
</g>
<!-- {q2, q0} -->
<g id="node2" class="node">
<title>{q2, q0}</title>
<ellipse fill="none" stroke="black" cx="46.25" cy="-46.25" rx="42.47" ry="42.47"/>
<ellipse fill="none" stroke="black" cx="46.25" cy="-46.25" rx="46.49" ry="46.49"/>
<text text-anchor="middle" x="46.25" y="-42.55" font-family="Times,serif" font-size="14.00">{q2, q0}</text>
</g>
<!-- {q0, q1} -->
<g id="node3" class="node">
<title>{q0, q1}</title>
<ellipse fill="none" stroke="black" cx="76.25" cy="-161.49" rx="42.49" ry="18"/>
<text text-anchor="middle" x="76.25" y="-157.79" font-family="Times,serif" font-size="14.00">{q0, q1}</text>
</g>
<!-- {q2, q0}&#45;&gt;{q0, q1} -->
<g id="edge6" class="edge">
<title>{q2, q0}&#45;&gt;{q0, q1}</title>
<path fill="none" stroke="black" d="M57.86,-91.07C61.63,-105.33 65.71,-120.72 69.06,-133.38"/>
<polygon fill="black" stroke="black" points="65.75,-134.52 71.69,-143.29 72.51,-132.73 65.75,-134.52"/>
<text text-anchor="middle" x="69.75" y="-114.29" font-family="Times,serif" font-size="14.00">0</text>
</g>
<!-- {q2, q0}&#45;&gt;{q0} -->
<g id="edge7" class="edge">
<title>{q2, q0}&#45;&gt;{q0}</title>
<path fill="none" stroke="black" d="M30.91,-90.27C25.8,-106.7 20.78,-125.75 18.25,-143.49 15.99,-159.33 16.4,-163.6 18.25,-179.49 19.85,-193.33 23.24,-208.43 26.48,-220.89"/>
<polygon fill="black" stroke="black" points="23.13,-221.91 29.13,-230.64 29.89,-220.07 23.13,-221.91"/>
<text text-anchor="middle" x="21.75" y="-157.79" font-family="Times,serif" font-size="14.00">1</text>
</g>
<!-- {q0, q1}&#45;&gt;{q2, q0} -->
<g id="edge5" class="edge">
<title>{q0, q1}&#45;&gt;{q2, q0}</title>
<path fill="none" stroke="black" d="M60.73,-144.68C56.18,-139.07 51.76,-132.42 49.25,-125.49 46.64,-118.29 45.03,-110.48 44.11,-102.66"/>
<polygon fill="black" stroke="black" points="47.58,-102.12 43.28,-92.44 40.6,-102.69 47.58,-102.12"/>
<text text-anchor="middle" x="52.75" y="-114.29" font-family="Times,serif" font-size="14.00">1</text>
</g>
<!-- {q0, q1}&#45;&gt;{q0, q1} -->
<g id="edge4" class="edge">
<title>{q0, q1}&#45;&gt;{q0, q1}</title>
<path fill="none" stroke="black" d="M114.49,-169.37C126.76,-169.28 136.49,-166.66 136.49,-161.49 136.49,-157.86 131.68,-155.48 124.56,-154.36"/>
<polygon fill="black" stroke="black" points="124.72,-150.87 114.49,-153.62 124.2,-157.85 124.72,-150.87"/>
<text text-anchor="middle" x="139.99" y="-157.79" font-family="Times,serif" font-size="14.00">0</text>
</g>
<!-- {q0}&#45;&gt;{q0, q1} -->
<g id="edge2" class="edge">
<title>{q0}&#45;&gt;{q0, q1}</title>
<path fill="none" stroke="black" d="M42.34,-231.1C48.31,-219.03 56.54,-202.37 63.4,-188.49"/>
<polygon fill="black" stroke="black" points="66.59,-189.93 67.89,-179.41 60.32,-186.83 66.59,-189.93"/>
<text text-anchor="middle" x="60.75" y="-201.29" font-family="Times,serif" font-size="14.00">0</text>
</g>
<!-- {q0}&#45;&gt;{q0} -->
<g id="edge3" class="edge">
<title>{q0}&#45;&gt;{q0}</title>
<path fill="none" stroke="black" d="M61.06,-255.2C71.82,-255.58 80.84,-253.34 80.84,-248.49 80.84,-245.31 76.96,-243.25 71.24,-242.32"/>
<polygon fill="black" stroke="black" points="71.23,-238.81 61.06,-241.78 70.86,-245.8 71.23,-238.81"/>
<text text-anchor="middle" x="84.34" y="-244.79" font-family="Times,serif" font-size="14.00">1</text>
</g>
</g>
</svg>
