<?xml version="1.0" encoding="UTF-8" standalone="no"?>
<!DOCTYPE svg PUBLIC "-//W3C//DTD SVG 1.1//EN"
 "http://www.w3.org/Graphics/SVG/1.1/DTD/svg11.dtd">
<!-- Generated by graphviz version 2.47.0 (20210316.0004)
 -->
<!-- Pages: 1 -->
<svg width="174pt" height="397pt"
 viewBox="0.00 0.00 174.43 397.39" xmlns="http://www.w3.org/2000/svg" xmlns:xlink="http://www.w3.org/1999/xlink">
<g id="graph0" class="graph" transform="scale(1 1) rotate(0) translate(4 393.39)">
<polygon fill="white" stroke="transparent" points="-4,4 -4,-393.39 170.43,-393.39 170.43,4 -4,4"/>
<!-- fake -->
<g id="node1" class="node">
<title>fake</title>
</g>
<!-- s0 -->
<g id="node5" class="node">
<title>s0</title>
<ellipse fill="none" stroke="black" cx="38.43" cy="-293.54" rx="18.72" ry="18.72"/>
<ellipse fill="none" stroke="black" cx="38.43" cy="-293.54" rx="22.7" ry="22.7"/>
<text text-anchor="middle" x="38.43" y="-289.84" font-family="Times,serif" font-size="14.00">s0</text>
</g>
<!-- fake&#45;&gt;s0 -->
<g id="edge1" class="edge">
<title>fake&#45;&gt;s0</title>
<path fill="none" stroke="black" stroke-width="2" d="M38.43,-353.18C38.43,-345.39 38.43,-335.92 38.43,-326.88"/>
<polygon fill="black" stroke="black" stroke-width="2" points="41.93,-326.59 38.43,-316.59 34.93,-326.59 41.93,-326.59"/>
</g>
<!-- s2 -->
<g id="node2" class="node">
<title>s2</title>
<ellipse fill="none" stroke="black" cx="107.43" cy="-109.85" rx="18.72" ry="18.72"/>
<ellipse fill="none" stroke="black" cx="107.43" cy="-109.85" rx="22.7" ry="22.7"/>
<text text-anchor="middle" x="107.43" y="-106.15" font-family="Times,serif" font-size="14.00">s2</text>
</g>
<!-- s3 -->
<g id="node3" class="node">
<title>s3</title>
<ellipse fill="none" stroke="black" cx="73.43" cy="-18" rx="27" ry="18"/>
<text text-anchor="middle" x="73.43" y="-14.3" font-family="Times,serif" font-size="14.00">s3</text>
</g>
<!-- s2&#45;&gt;s3 -->
<g id="edge6" class="edge">
<title>s2&#45;&gt;s3</title>
<path fill="none" stroke="black" d="M99.55,-88.01C94.69,-75.16 88.41,-58.58 83.23,-44.89"/>
<polygon fill="black" stroke="black" points="86.5,-43.65 79.69,-35.53 79.96,-46.12 86.5,-43.65"/>
<text text-anchor="middle" x="97.93" y="-57.8" font-family="Times,serif" font-size="14.00">5c</text>
</g>
<!-- s2&#45;&gt;s3 -->
<g id="edge7" class="edge">
<title>s2&#45;&gt;s3</title>
<path fill="none" stroke="black" d="M111.74,-87.27C112.86,-76.85 112.74,-64.38 108.43,-54 106.12,-48.41 102.42,-43.24 98.29,-38.69"/>
<polygon fill="black" stroke="black" points="100.67,-36.13 91.07,-31.65 95.78,-41.14 100.67,-36.13"/>
<text text-anchor="middle" x="121.43" y="-57.8" font-family="Times,serif" font-size="14.00">10c</text>
</g>
<!-- s3&#45;&gt;s0 -->
<g id="edge10" class="edge">
<title>s3&#45;&gt;s0</title>
<path fill="none" stroke="black" d="M50.03,-27.01C36.9,-32.63 21.23,-41.42 11.43,-54 2.09,-66 4.45,-71.93 2.43,-87 -5.95,-149.6 13.78,-222.25 27.22,-262.24"/>
<polygon fill="black" stroke="black" points="23.99,-263.61 30.56,-271.92 30.6,-261.32 23.99,-263.61"/>
<text text-anchor="middle" x="16.93" y="-154.5" font-family="Times,serif" font-size="14.00">gum</text>
</g>
<!-- s4 -->
<g id="node4" class="node">
<title>s4</title>
<ellipse fill="none" stroke="black" cx="38.43" cy="-109.85" rx="27" ry="18"/>
<text text-anchor="middle" x="38.43" y="-106.15" font-family="Times,serif" font-size="14.00">s4</text>
</g>
<!-- s4&#45;&gt;s3 -->
<g id="edge8" class="edge">
<title>s4&#45;&gt;s3</title>
<path fill="none" stroke="black" d="M25.81,-93.91C17.85,-82.59 10.32,-66.84 17.43,-54 22.64,-44.6 31.55,-37.39 40.74,-32.03"/>
<polygon fill="black" stroke="black" points="42.65,-34.98 49.91,-27.27 39.42,-28.77 42.65,-34.98"/>
<text text-anchor="middle" x="23.93" y="-57.8" font-family="Times,serif" font-size="14.00">5c</text>
</g>
<!-- s4&#45;&gt;s3 -->
<g id="edge9" class="edge">
<title>s4&#45;&gt;s3</title>
<path fill="none" stroke="black" d="M45.02,-91.95C50.18,-78.69 57.46,-60 63.36,-44.86"/>
<polygon fill="black" stroke="black" points="66.63,-46.11 67,-35.52 60.11,-43.57 66.63,-46.11"/>
<text text-anchor="middle" x="68.43" y="-57.8" font-family="Times,serif" font-size="14.00">10c</text>
</g>
<!-- s0&#45;&gt;s4 -->
<g id="edge3" class="edge">
<title>s0&#45;&gt;s4</title>
<path fill="none" stroke="black" d="M38.43,-270.63C38.43,-237.44 38.43,-174.48 38.43,-138.29"/>
<polygon fill="black" stroke="black" points="41.93,-137.98 38.43,-127.98 34.93,-137.98 41.93,-137.98"/>
<text text-anchor="middle" x="48.43" y="-198" font-family="Times,serif" font-size="14.00">10c</text>
</g>
<!-- s1 -->
<g id="node6" class="node">
<title>s1</title>
<ellipse fill="none" stroke="black" cx="107.43" cy="-201.7" rx="27" ry="18"/>
<text text-anchor="middle" x="107.43" y="-198" font-family="Times,serif" font-size="14.00">s1</text>
</g>
<!-- s0&#45;&gt;s1 -->
<g id="edge2" class="edge">
<title>s0&#45;&gt;s1</title>
<path fill="none" stroke="black" d="M52.07,-274.79C62.8,-260.81 77.86,-241.21 89.56,-225.97"/>
<polygon fill="black" stroke="black" points="92.35,-228.08 95.67,-218.02 86.8,-223.82 92.35,-228.08"/>
<text text-anchor="middle" x="84.93" y="-241.5" font-family="Times,serif" font-size="14.00">5c</text>
</g>
<!-- s1&#45;&gt;s2 -->
<g id="edge4" class="edge">
<title>s1&#45;&gt;s2</title>
<path fill="none" stroke="black" d="M107.43,-183.37C107.43,-171.91 107.43,-156.54 107.43,-142.9"/>
<polygon fill="black" stroke="black" points="110.93,-142.9 107.43,-132.9 103.93,-142.9 110.93,-142.9"/>
<text text-anchor="middle" x="113.93" y="-154.5" font-family="Times,serif" font-size="14.00">5c</text>
</g>
<!-- s1&#45;&gt;s3 -->
<g id="edge5" class="edge">
<title>s1&#45;&gt;s3</title>
<path fill="none" stroke="black" d="M117.51,-184.64C134.12,-155.93 162.79,-94.97 135.43,-54 128.59,-43.74 117.66,-36.17 106.87,-30.74"/>
<polygon fill="black" stroke="black" points="108.09,-27.44 97.53,-26.5 105.2,-33.82 108.09,-27.44"/>
<text text-anchor="middle" x="156.43" y="-106.15" font-family="Times,serif" font-size="14.00">10c</text>
</g>
</g>
</svg>
