<?xml version="1.0" encoding="UTF-8" standalone="no"?>
<!DOCTYPE svg PUBLIC "-//W3C//DTD SVG 1.1//EN"
 "http://www.w3.org/Graphics/SVG/1.1/DTD/svg11.dtd">
<!-- Generated by graphviz version 2.47.0 (20210316.0004)
 -->
<!-- Pages: 1 -->
<svg width="247pt" height="373pt"
 viewBox="0.00 0.00 247.29 373.19" xmlns="http://www.w3.org/2000/svg" xmlns:xlink="http://www.w3.org/1999/xlink">
<g id="graph0" class="graph" transform="scale(1 1) rotate(0) translate(4 369.19)">
<polygon fill="white" stroke="transparent" points="-4,4 -4,-369.19 243.29,-369.19 243.29,4 -4,4"/>
<!-- fake -->
<g id="node1" class="node">
<title>fake</title>
</g>
<!-- {&#39;q0&#39;} -->
<g id="node3" class="node">
<title>{&#39;q0&#39;}</title>
<ellipse fill="none" stroke="black" cx="103.1" cy="-260.19" rx="31.4" ry="18"/>
<text text-anchor="middle" x="103.1" y="-256.49" font-family="Times,serif" font-size="14.00">{&#39;q0&#39;}</text>
</g>
<!-- fake&#45;&gt;{&#39;q0&#39;} -->
<g id="edge1" class="edge">
<title>fake&#45;&gt;{&#39;q0&#39;}</title>
<path fill="none" stroke="black" stroke-width="2" d="M103.1,-328.99C103.1,-317.35 103.1,-301.74 103.1,-288.43"/>
<polygon fill="black" stroke="black" stroke-width="2" points="106.6,-288.37 103.1,-278.37 99.6,-288.37 106.6,-288.37"/>
</g>
<!-- {&#39;q0&#39;, &#39;q1&#39;} -->
<g id="node2" class="node">
<title>{&#39;q0&#39;, &#39;q1&#39;}</title>
<ellipse fill="none" stroke="black" cx="48.1" cy="-173.19" rx="48.19" ry="18"/>
<text text-anchor="middle" x="48.1" y="-169.49" font-family="Times,serif" font-size="14.00">{&#39;q0&#39;, &#39;q1&#39;}</text>
</g>
<!-- {&#39;q0&#39;, &#39;q1&#39;}&#45;&gt;{&#39;q0&#39;, &#39;q1&#39;} -->
<g id="edge5" class="edge">
<title>{&#39;q0&#39;, &#39;q1&#39;}&#45;&gt;{&#39;q0&#39;, &#39;q1&#39;}</title>
<path fill="none" stroke="black" d="M91.64,-181.04C104.35,-180.77 114.19,-178.15 114.19,-173.19 114.19,-169.7 109.32,-167.37 102.02,-166.2"/>
<polygon fill="black" stroke="black" points="101.89,-162.68 91.64,-165.34 101.31,-169.66 101.89,-162.68"/>
<text text-anchor="middle" x="117.69" y="-169.49" font-family="Times,serif" font-size="14.00">0</text>
</g>
<!-- {&#39;q2&#39;, &#39;q0&#39;} -->
<g id="node5" class="node">
<title>{&#39;q2&#39;, &#39;q0&#39;}</title>
<ellipse fill="none" stroke="black" cx="78.1" cy="-52.1" rx="48.18" ry="48.18"/>
<ellipse fill="none" stroke="black" cx="78.1" cy="-52.1" rx="52.19" ry="52.19"/>
<text text-anchor="middle" x="78.1" y="-48.4" font-family="Times,serif" font-size="14.00">{&#39;q2&#39;, &#39;q0&#39;}</text>
</g>
<!-- {&#39;q0&#39;, &#39;q1&#39;}&#45;&gt;{&#39;q2&#39;, &#39;q0&#39;} -->
<g id="edge6" class="edge">
<title>{&#39;q0&#39;, &#39;q1&#39;}&#45;&gt;{&#39;q2&#39;, &#39;q0&#39;}</title>
<path fill="none" stroke="black" d="M47.81,-154.88C47.98,-145.17 48.74,-132.89 51.1,-122.19 52,-118.09 53.11,-113.91 54.36,-109.74"/>
<polygon fill="black" stroke="black" points="57.74,-110.66 57.5,-100.06 51.08,-108.49 57.74,-110.66"/>
<text text-anchor="middle" x="54.6" y="-125.99" font-family="Times,serif" font-size="14.00">1</text>
</g>
<!-- {&#39;q0&#39;}&#45;&gt;{&#39;q0&#39;, &#39;q1&#39;} -->
<g id="edge2" class="edge">
<title>{&#39;q0&#39;}&#45;&gt;{&#39;q0&#39;, &#39;q1&#39;}</title>
<path fill="none" stroke="black" d="M92.75,-243.2C84.84,-230.97 73.77,-213.87 64.63,-199.75"/>
<polygon fill="black" stroke="black" points="67.33,-197.47 58.96,-190.98 61.45,-201.28 67.33,-197.47"/>
<text text-anchor="middle" x="82.6" y="-212.99" font-family="Times,serif" font-size="14.00">0</text>
</g>
<!-- {&#39;q0&#39;}&#45;&gt;{&#39;q0&#39;} -->
<g id="edge3" class="edge">
<title>{&#39;q0&#39;}&#45;&gt;{&#39;q0&#39;}</title>
<path fill="none" stroke="black" d="M131.41,-268.02C142.76,-268.46 152.29,-265.85 152.29,-260.19 152.29,-256.39 147.99,-253.96 141.72,-252.91"/>
<polygon fill="black" stroke="black" points="141.58,-249.4 131.41,-252.36 141.21,-256.39 141.58,-249.4"/>
<text text-anchor="middle" x="155.79" y="-256.49" font-family="Times,serif" font-size="14.00">1</text>
</g>
<!-- {&#39;q1&#39;} -->
<g id="node4" class="node">
<title>{&#39;q1&#39;}</title>
<ellipse fill="none" stroke="black" cx="208.1" cy="-347.19" rx="31.4" ry="18"/>
<text text-anchor="middle" x="208.1" y="-343.49" font-family="Times,serif" font-size="14.00">{&#39;q1&#39;}</text>
</g>
<!-- {&#39;q2&#39;} -->
<g id="node6" class="node">
<title>{&#39;q2&#39;}</title>
<ellipse fill="none" stroke="black" cx="208.1" cy="-260.19" rx="31.4" ry="18"/>
<text text-anchor="middle" x="208.1" y="-256.49" font-family="Times,serif" font-size="14.00">{&#39;q2&#39;}</text>
</g>
<!-- {&#39;q1&#39;}&#45;&gt;{&#39;q2&#39;} -->
<g id="edge4" class="edge">
<title>{&#39;q1&#39;}&#45;&gt;{&#39;q2&#39;}</title>
<path fill="none" stroke="black" d="M208.1,-328.99C208.1,-317.35 208.1,-301.74 208.1,-288.43"/>
<polygon fill="black" stroke="black" points="211.6,-288.37 208.1,-278.37 204.6,-288.37 211.6,-288.37"/>
<text text-anchor="middle" x="211.6" y="-299.99" font-family="Times,serif" font-size="14.00">1</text>
</g>
<!-- {&#39;q2&#39;, &#39;q0&#39;}&#45;&gt;{&#39;q0&#39;, &#39;q1&#39;} -->
<g id="edge7" class="edge">
<title>{&#39;q2&#39;, &#39;q0&#39;}&#45;&gt;{&#39;q0&#39;, &#39;q1&#39;}</title>
<path fill="none" stroke="black" d="M65.57,-102.83C61.9,-117.39 58.03,-132.76 54.87,-145.32"/>
<polygon fill="black" stroke="black" points="51.44,-144.58 52.39,-155.13 58.23,-146.29 51.44,-144.58"/>
<text text-anchor="middle" x="64.6" y="-125.99" font-family="Times,serif" font-size="14.00">0</text>
</g>
<!-- {&#39;q2&#39;, &#39;q0&#39;}&#45;&gt;{&#39;q0&#39;} -->
<g id="edge8" class="edge">
<title>{&#39;q2&#39;, &#39;q0&#39;}&#45;&gt;{&#39;q0&#39;}</title>
<path fill="none" stroke="black" d="M105.94,-96.56C115.6,-114.06 125.22,-134.88 130.1,-155.19 136.52,-181.97 126.56,-212.45 116.97,-233.45"/>
<polygon fill="black" stroke="black" points="113.72,-232.14 112.51,-242.67 120.02,-235.19 113.72,-232.14"/>
<text text-anchor="middle" x="136.6" y="-169.49" font-family="Times,serif" font-size="14.00">1</text>
</g>
</g>
</svg>
