<?xml version="1.0" encoding="UTF-8" standalone="no"?>
<!DOCTYPE svg PUBLIC "-//W3C//DTD SVG 1.1//EN"
 "http://www.w3.org/Graphics/SVG/1.1/DTD/svg11.dtd">
<!-- Generated by graphviz version 2.47.0 (20210316.0004)
 -->
<!-- Pages: 1 -->
<svg width="157pt" height="389pt"
 viewBox="0.00 0.00 157.00 389.00" xmlns="http://www.w3.org/2000/svg" xmlns:xlink="http://www.w3.org/1999/xlink">
<g id="graph0" class="graph" transform="scale(1 1) rotate(0) translate(4 385)">
<polygon fill="white" stroke="transparent" points="-4,4 -4,-385 153,-385 153,4 -4,4"/>
<!-- fake -->
<g id="node1" class="node">
<title>fake</title>
</g>
<!-- q0 -->
<g id="node2" class="node">
<title>q0</title>
<ellipse fill="none" stroke="black" cx="91" cy="-290" rx="27" ry="18"/>
<text text-anchor="middle" x="91" y="-286.3" font-family="Times,serif" font-size="14.00">q0</text>
</g>
<!-- fake&#45;&gt;q0 -->
<g id="edge1" class="edge">
<title>fake&#45;&gt;q0</title>
<path fill="none" stroke="black" stroke-width="2" d="M91,-344.81C91,-336.79 91,-327.04 91,-318.07"/>
<polygon fill="black" stroke="black" stroke-width="2" points="94.5,-318.03 91,-308.03 87.5,-318.03 94.5,-318.03"/>
</g>
<!-- q0&#45;&gt;q0 -->
<g id="edge9" class="edge">
<title>q0&#45;&gt;q0</title>
<path fill="none" stroke="black" d="M116.44,-296.69C127.03,-297.15 136,-294.92 136,-290 136,-286.77 132.14,-284.7 126.49,-283.78"/>
<polygon fill="black" stroke="black" points="126.6,-280.29 116.44,-283.31 126.27,-287.28 126.6,-280.29"/>
<text text-anchor="middle" x="142.5" y="-286.3" font-family="Times,serif" font-size="14.00">s1</text>
</g>
<!-- q2 -->
<g id="node3" class="node">
<title>q2</title>
<ellipse fill="none" stroke="black" cx="27" cy="-203" rx="27" ry="18"/>
<text text-anchor="middle" x="27" y="-199.3" font-family="Times,serif" font-size="14.00">q2</text>
</g>
<!-- q0&#45;&gt;q2 -->
<g id="edge8" class="edge">
<title>q0&#45;&gt;q2</title>
<path fill="none" stroke="black" d="M79.26,-273.41C69.61,-260.59 55.78,-242.22 44.77,-227.59"/>
<polygon fill="black" stroke="black" points="47.48,-225.37 38.66,-219.49 41.88,-229.58 47.48,-225.37"/>
<text text-anchor="middle" x="69.5" y="-242.8" font-family="Times,serif" font-size="14.00">s2</text>
</g>
<!-- q2&#45;&gt;q2 -->
<g id="edge5" class="edge">
<title>q2&#45;&gt;q2</title>
<path fill="none" stroke="black" d="M51.53,-210.75C62.51,-211.49 72,-208.9 72,-203 72,-199.03 67.72,-196.56 61.57,-195.59"/>
<polygon fill="black" stroke="black" points="61.65,-192.09 51.53,-195.24 61.41,-199.09 61.65,-192.09"/>
<text text-anchor="middle" x="78.5" y="-199.3" font-family="Times,serif" font-size="14.00">s3</text>
</g>
<!-- q1 -->
<g id="node4" class="node">
<title>q1</title>
<ellipse fill="none" stroke="black" cx="27" cy="-116" rx="27" ry="18"/>
<text text-anchor="middle" x="27" y="-112.3" font-family="Times,serif" font-size="14.00">q1</text>
</g>
<!-- q2&#45;&gt;q1 -->
<g id="edge4" class="edge">
<title>q2&#45;&gt;q1</title>
<path fill="none" stroke="black" d="M27,-184.8C27,-173.16 27,-157.54 27,-144.23"/>
<polygon fill="black" stroke="black" points="30.5,-144.17 27,-134.17 23.5,-144.17 30.5,-144.17"/>
<text text-anchor="middle" x="33.5" y="-155.8" font-family="Times,serif" font-size="14.00">s2</text>
</g>
<!-- q1&#45;&gt;q1 -->
<g id="edge7" class="edge">
<title>q1&#45;&gt;q1</title>
<path fill="none" stroke="black" d="M51.53,-123.75C62.51,-124.49 72,-121.9 72,-116 72,-112.03 67.72,-109.56 61.57,-108.59"/>
<polygon fill="black" stroke="black" points="61.65,-105.09 51.53,-108.24 61.41,-112.09 61.65,-105.09"/>
<text text-anchor="middle" x="78.5" y="-112.3" font-family="Times,serif" font-size="14.00">s1</text>
</g>
<!-- q3 -->
<g id="node5" class="node">
<title>q3</title>
<ellipse fill="none" stroke="black" cx="70" cy="-23.5" rx="19.5" ry="19.5"/>
<ellipse fill="none" stroke="black" cx="70" cy="-23.5" rx="23.5" ry="23.5"/>
<text text-anchor="middle" x="70" y="-19.8" font-family="Times,serif" font-size="14.00">q3</text>
</g>
<!-- q1&#45;&gt;q3 -->
<g id="edge6" class="edge">
<title>q1&#45;&gt;q3</title>
<path fill="none" stroke="black" d="M34.89,-98.4C40.73,-86.09 48.86,-68.98 55.83,-54.32"/>
<polygon fill="black" stroke="black" points="59.07,-55.66 60.2,-45.12 52.75,-52.65 59.07,-55.66"/>
<text text-anchor="middle" x="56.5" y="-68.8" font-family="Times,serif" font-size="14.00">s2</text>
</g>
<!-- q3&#45;&gt;q0 -->
<g id="edge2" class="edge">
<title>q3&#45;&gt;q0</title>
<path fill="none" stroke="black" d="M78.86,-45.61C84.44,-60.06 91.11,-79.84 94,-98 103.2,-155.83 98.28,-224.75 94.35,-261.95"/>
<polygon fill="black" stroke="black" points="90.85,-261.67 93.22,-271.99 97.81,-262.45 90.85,-261.67"/>
<text text-anchor="middle" x="105.5" y="-155.8" font-family="Times,serif" font-size="14.00">s2</text>
</g>
<!-- q3&#45;&gt;q3 -->
<g id="edge3" class="edge">
<title>q3&#45;&gt;q3</title>
<path fill="none" stroke="black" d="M92.2,-32.32C102.5,-33.28 111.5,-30.34 111.5,-23.5 111.5,-19.11 107.81,-16.33 102.44,-15.15"/>
<polygon fill="black" stroke="black" points="102.35,-11.64 92.2,-14.68 102.03,-18.64 102.35,-11.64"/>
<text text-anchor="middle" x="118" y="-19.8" font-family="Times,serif" font-size="14.00">s1</text>
</g>
</g>
</svg>
