<?xml version="1.0" encoding="UTF-8" standalone="no"?>
<!DOCTYPE svg PUBLIC "-//W3C//DTD SVG 1.1//EN"
 "http://www.w3.org/Graphics/SVG/1.1/DTD/svg11.dtd">
<!-- Generated by graphviz version 2.47.0 (20210316.0004)
 -->
<!-- Pages: 1 -->
<svg width="294pt" height="751pt"
 viewBox="0.00 0.00 294.19 750.67" xmlns="http://www.w3.org/2000/svg" xmlns:xlink="http://www.w3.org/1999/xlink">
<g id="graph0" class="graph" transform="scale(1 1) rotate(0) translate(4 746.67)">
<polygon fill="white" stroke="transparent" points="-4,4 -4,-746.67 290.19,-746.67 290.19,4 -4,4"/>
<!-- fake -->
<g id="node1" class="node">
<title>fake</title>
</g>
<!-- {q1} -->
<g id="node3" class="node">
<title>{q1}</title>
<ellipse fill="none" stroke="black" cx="28.6" cy="-651.67" rx="28.7" ry="18"/>
<text text-anchor="middle" x="28.6" y="-647.97" font-family="Times,serif" font-size="14.00">{q1}</text>
</g>
<!-- fake&#45;&gt;{q1} -->
<g id="edge1" class="edge">
<title>fake&#45;&gt;{q1}</title>
<path fill="none" stroke="black" stroke-width="2" d="M28.6,-706.49C28.6,-698.46 28.6,-688.72 28.6,-679.74"/>
<polygon fill="black" stroke="black" stroke-width="2" points="32.1,-679.7 28.6,-669.7 25.1,-679.7 32.1,-679.7"/>
</g>
<!-- {q3, q2} -->
<g id="node2" class="node">
<title>{q3, q2}</title>
<ellipse fill="none" stroke="black" cx="228.6" cy="-162.44" rx="42.47" ry="42.47"/>
<ellipse fill="none" stroke="black" cx="228.6" cy="-162.44" rx="46.49" ry="46.49"/>
<text text-anchor="middle" x="228.6" y="-158.74" font-family="Times,serif" font-size="14.00">{q3, q2}</text>
</g>
<!-- {q4, q3} -->
<g id="node6" class="node">
<title>{q4, q3}</title>
<ellipse fill="none" stroke="black" cx="134.6" cy="-449.43" rx="42.47" ry="42.47"/>
<ellipse fill="none" stroke="black" cx="134.6" cy="-449.43" rx="46.49" ry="46.49"/>
<text text-anchor="middle" x="134.6" y="-445.73" font-family="Times,serif" font-size="14.00">{q4, q3}</text>
</g>
<!-- {q3, q2}&#45;&gt;{q4, q3} -->
<g id="edge11" class="edge">
<title>{q3, q2}&#45;&gt;{q4, q3}</title>
<path fill="none" stroke="black" d="M243.14,-206.69C253.9,-246.32 263.43,-305.71 242.6,-352.18 230.15,-379.94 205.31,-402.98 182.58,-419.55"/>
<polygon fill="black" stroke="black" points="180.49,-416.74 174.33,-425.35 184.52,-422.46 180.49,-416.74"/>
<text text-anchor="middle" x="258.1" y="-302.23" font-family="Times,serif" font-size="14.00">a</text>
</g>
<!-- {q3} -->
<g id="node7" class="node">
<title>{q3}</title>
<ellipse fill="none" stroke="black" cx="228.6" cy="-32.6" rx="28.68" ry="28.68"/>
<ellipse fill="none" stroke="black" cx="228.6" cy="-32.6" rx="32.7" ry="32.7"/>
<text text-anchor="middle" x="228.6" y="-28.9" font-family="Times,serif" font-size="14.00">{q3}</text>
</g>
<!-- {q3, q2}&#45;&gt;{q3} -->
<g id="edge12" class="edge">
<title>{q3, q2}&#45;&gt;{q3}</title>
<path fill="none" stroke="black" d="M228.6,-116.01C228.6,-102.76 228.6,-88.35 228.6,-75.33"/>
<polygon fill="black" stroke="black" points="232.1,-75.25 228.6,-65.25 225.1,-75.25 232.1,-75.25"/>
<text text-anchor="middle" x="232.1" y="-86.99" font-family="Times,serif" font-size="14.00">b</text>
</g>
<!-- {q2} -->
<g id="node5" class="node">
<title>{q2}</title>
<ellipse fill="none" stroke="black" cx="28.6" cy="-564.67" rx="28.7" ry="18"/>
<text text-anchor="middle" x="28.6" y="-560.97" font-family="Times,serif" font-size="14.00">{q2}</text>
</g>
<!-- {q1}&#45;&gt;{q2} -->
<g id="edge2" class="edge">
<title>{q1}&#45;&gt;{q2}</title>
<path fill="none" stroke="black" d="M28.6,-633.47C28.6,-621.84 28.6,-606.22 28.6,-592.91"/>
<polygon fill="black" stroke="black" points="32.1,-592.85 28.6,-582.85 25.1,-592.85 32.1,-592.85"/>
<text text-anchor="middle" x="32.1" y="-604.47" font-family="Times,serif" font-size="14.00">a</text>
</g>
<!-- {q5} -->
<g id="node4" class="node">
<title>{q5}</title>
<ellipse fill="none" stroke="black" cx="35.6" cy="-162.44" rx="28.68" ry="28.68"/>
<ellipse fill="none" stroke="black" cx="35.6" cy="-162.44" rx="32.7" ry="32.7"/>
<text text-anchor="middle" x="35.6" y="-158.74" font-family="Times,serif" font-size="14.00">{q5}</text>
</g>
<!-- {q5}&#45;&gt;{q2} -->
<g id="edge7" class="edge">
<title>{q5}&#45;&gt;{q2}</title>
<path fill="none" stroke="black" d="M34.03,-195.08C33.16,-213.85 32.15,-238.12 31.6,-259.69 28.98,-361.65 28.6,-482.9 28.58,-536.21"/>
<polygon fill="black" stroke="black" points="25.08,-536.53 28.58,-546.53 32.08,-536.53 25.08,-536.53"/>
<text text-anchor="middle" x="33.1" y="-373.98" font-family="Times,serif" font-size="14.00">b</text>
</g>
<!-- {q2}&#45;&gt;{q4, q3} -->
<g id="edge3" class="edge">
<title>{q2}&#45;&gt;{q4, q3}</title>
<path fill="none" stroke="black" d="M42.46,-548.87C56.09,-534.3 77.53,-511.39 96.3,-491.34"/>
<polygon fill="black" stroke="black" points="99.07,-493.51 103.34,-483.82 93.96,-488.72 99.07,-493.51"/>
<text text-anchor="middle" x="79.1" y="-517.47" font-family="Times,serif" font-size="14.00">a</text>
</g>
<!-- {q4} -->
<g id="node8" class="node">
<title>{q4}</title>
<ellipse fill="none" stroke="black" cx="69.6" cy="-305.93" rx="28.7" ry="18"/>
<text text-anchor="middle" x="69.6" y="-302.23" font-family="Times,serif" font-size="14.00">{q4}</text>
</g>
<!-- {q4, q3}&#45;&gt;{q4} -->
<g id="edge8" class="edge">
<title>{q4, q3}&#45;&gt;{q4}</title>
<path fill="none" stroke="black" d="M115.62,-407.12C104.56,-383.04 90.95,-353.42 81.41,-332.65"/>
<polygon fill="black" stroke="black" points="84.57,-331.13 77.21,-323.51 78.21,-334.06 84.57,-331.13"/>
<text text-anchor="middle" x="108.1" y="-373.98" font-family="Times,serif" font-size="14.00">a</text>
</g>
<!-- {q5, q3} -->
<g id="node9" class="node">
<title>{q5, q3}</title>
<ellipse fill="none" stroke="black" cx="187.6" cy="-305.93" rx="42.47" ry="42.47"/>
<ellipse fill="none" stroke="black" cx="187.6" cy="-305.93" rx="46.49" ry="46.49"/>
<text text-anchor="middle" x="187.6" y="-302.23" font-family="Times,serif" font-size="14.00">{q5, q3}</text>
</g>
<!-- {q4, q3}&#45;&gt;{q5, q3} -->
<g id="edge9" class="edge">
<title>{q4, q3}&#45;&gt;{q5, q3}</title>
<path fill="none" stroke="black" d="M150.5,-405.97C156,-391.28 162.24,-374.63 168,-359.24"/>
<polygon fill="black" stroke="black" points="171.29,-360.44 171.52,-349.85 164.74,-357.98 171.29,-360.44"/>
<text text-anchor="middle" x="166.1" y="-373.98" font-family="Times,serif" font-size="14.00">b</text>
</g>
<!-- {q3}&#45;&gt;{q3} -->
<g id="edge4" class="edge">
<title>{q3}&#45;&gt;{q3}</title>
<path fill="none" stroke="black" d="M259.73,-43.47C270.5,-43.58 279.19,-39.96 279.19,-32.6 279.19,-27.77 275.45,-24.54 269.83,-22.93"/>
<polygon fill="black" stroke="black" points="270.07,-19.44 259.73,-21.73 269.24,-26.39 270.07,-19.44"/>
<text text-anchor="middle" x="282.69" y="-28.9" font-family="Times,serif" font-size="14.00">b</text>
</g>
<!-- {q4}&#45;&gt;{q5} -->
<g id="edge6" class="edge">
<title>{q4}&#45;&gt;{q5}</title>
<path fill="none" stroke="black" d="M65.5,-287.87C60.54,-267.25 52.04,-231.87 45.37,-204.09"/>
<polygon fill="black" stroke="black" points="48.74,-203.15 43,-194.24 41.93,-204.79 48.74,-203.15"/>
<text text-anchor="middle" x="58.1" y="-230.49" font-family="Times,serif" font-size="14.00">b</text>
</g>
<!-- {q4}&#45;&gt;{q4} -->
<g id="edge5" class="edge">
<title>{q4}&#45;&gt;{q4}</title>
<path fill="none" stroke="black" d="M90.68,-318.13C103.75,-321.07 116.19,-317.01 116.19,-305.93 116.19,-297.8 109.49,-293.45 100.74,-292.87"/>
<polygon fill="black" stroke="black" points="100.35,-289.4 90.68,-293.73 100.95,-296.37 100.35,-289.4"/>
<text text-anchor="middle" x="119.69" y="-302.23" font-family="Times,serif" font-size="14.00">a</text>
</g>
<!-- {q5, q3}&#45;&gt;{q3, q2} -->
<g id="edge10" class="edge">
<title>{q5, q3}&#45;&gt;{q3, q2}</title>
<path fill="none" stroke="black" d="M200.23,-261.33C204.29,-247.34 208.82,-231.69 213.06,-217.07"/>
<polygon fill="black" stroke="black" points="216.51,-217.73 215.93,-207.15 209.79,-215.78 216.51,-217.73"/>
<text text-anchor="middle" x="212.1" y="-230.49" font-family="Times,serif" font-size="14.00">b</text>
</g>
</g>
</svg>
