<?xml version="1.0" encoding="UTF-8" standalone="no"?>
<!DOCTYPE svg PUBLIC "-//W3C//DTD SVG 1.1//EN"
 "http://www.w3.org/Graphics/SVG/1.1/DTD/svg11.dtd">
<!-- Generated by graphviz version 2.47.0 (20210316.0004)
 -->
<!-- Pages: 1 -->
<svg width="209pt" height="400pt"
 viewBox="0.00 0.00 209.00 399.99" xmlns="http://www.w3.org/2000/svg" xmlns:xlink="http://www.w3.org/1999/xlink">
<g id="graph0" class="graph" transform="scale(1 1) rotate(0) translate(4 395.99)">
<polygon fill="white" stroke="transparent" points="-4,4 -4,-395.99 205,-395.99 205,4 -4,4"/>
<!-- fake0 -->
<g id="node1" class="node">
<title>fake0</title>
</g>
<!-- q1 -->
<g id="node5" class="node">
<title>q1</title>
<ellipse fill="none" stroke="black" cx="59.5" cy="-300.99" rx="27" ry="18"/>
<text text-anchor="middle" x="59.5" y="-297.29" font-family="Times,serif" font-size="14.00">q1</text>
</g>
<!-- fake0&#45;&gt;q1 -->
<g id="edge1" class="edge">
<title>fake0&#45;&gt;q1</title>
<path fill="none" stroke="black" stroke-width="2" d="M59.5,-355.81C59.5,-347.78 59.5,-338.04 59.5,-329.06"/>
<polygon fill="black" stroke="black" stroke-width="2" points="63,-329.02 59.5,-319.02 56,-329.02 63,-329.02"/>
</g>
<!-- q5 -->
<g id="node2" class="node">
<title>q5</title>
<ellipse fill="none" stroke="black" cx="23.5" cy="-23.5" rx="19.5" ry="19.5"/>
<ellipse fill="none" stroke="black" cx="23.5" cy="-23.5" rx="23.5" ry="23.5"/>
<text text-anchor="middle" x="23.5" y="-19.8" font-family="Times,serif" font-size="14.00">q5</text>
</g>
<!-- q2 -->
<g id="node3" class="node">
<title>q2</title>
<ellipse fill="none" stroke="black" cx="59.5" cy="-213.99" rx="27" ry="18"/>
<text text-anchor="middle" x="59.5" y="-210.29" font-family="Times,serif" font-size="14.00">q2</text>
</g>
<!-- q5&#45;&gt;q2 -->
<g id="edge8" class="edge">
<title>q5&#45;&gt;q2</title>
<path fill="none" stroke="black" d="M17.83,-46.76C12.57,-71.33 6.88,-111.78 16.5,-144.99 21.23,-161.34 31.21,-177.54 40.36,-190.02"/>
<polygon fill="black" stroke="black" points="37.63,-192.21 46.48,-198.02 43.18,-187.96 37.63,-192.21"/>
<text text-anchor="middle" x="20" y="-117.79" font-family="Times,serif" font-size="14.00">b</text>
</g>
<!-- q4 -->
<g id="node4" class="node">
<title>q4</title>
<ellipse fill="none" stroke="black" cx="59.5" cy="-121.49" rx="27" ry="18"/>
<text text-anchor="middle" x="59.5" y="-117.79" font-family="Times,serif" font-size="14.00">q4</text>
</g>
<!-- q2&#45;&gt;q4 -->
<g id="edge4" class="edge">
<title>q2&#45;&gt;q4</title>
<path fill="none" stroke="black" d="M59.5,-195.97C59.5,-183.03 59.5,-164.97 59.5,-149.99"/>
<polygon fill="black" stroke="black" points="63,-149.75 59.5,-139.75 56,-149.75 63,-149.75"/>
<text text-anchor="middle" x="63" y="-166.79" font-family="Times,serif" font-size="14.00">a</text>
</g>
<!-- q3 -->
<g id="node6" class="node">
<title>q3</title>
<ellipse fill="none" stroke="black" cx="152.5" cy="-121.49" rx="19.5" ry="19.5"/>
<ellipse fill="none" stroke="black" cx="152.5" cy="-121.49" rx="23.5" ry="23.5"/>
<text text-anchor="middle" x="152.5" y="-117.79" font-family="Times,serif" font-size="14.00">q3</text>
</g>
<!-- q2&#45;&gt;q3 -->
<g id="edge3" class="edge">
<title>q2&#45;&gt;q3</title>
<path fill="none" stroke="black" d="M74.44,-198.45C89.04,-184.24 111.51,-162.38 128.6,-145.75"/>
<polygon fill="black" stroke="black" points="131.3,-148.01 136.03,-138.52 126.42,-142.99 131.3,-148.01"/>
<text text-anchor="middle" x="112" y="-166.79" font-family="Times,serif" font-size="14.00">a</text>
</g>
<!-- q4&#45;&gt;q5 -->
<g id="edge7" class="edge">
<title>q4&#45;&gt;q5</title>
<path fill="none" stroke="black" d="M53.23,-103.77C48.22,-90.43 41.08,-71.37 35.04,-55.28"/>
<polygon fill="black" stroke="black" points="38.25,-53.86 31.46,-45.73 31.69,-56.32 38.25,-53.86"/>
<text text-anchor="middle" x="48" y="-68.8" font-family="Times,serif" font-size="14.00">b</text>
</g>
<!-- q4&#45;&gt;q4 -->
<g id="edge6" class="edge">
<title>q4&#45;&gt;q4</title>
<path fill="none" stroke="black" d="M83.11,-130.28C94.47,-131.36 104.5,-128.43 104.5,-121.49 104.5,-116.83 99.97,-113.98 93.56,-112.94"/>
<polygon fill="black" stroke="black" points="93.19,-109.43 83.11,-112.71 93.03,-116.43 93.19,-109.43"/>
<text text-anchor="middle" x="108" y="-117.79" font-family="Times,serif" font-size="14.00">a</text>
</g>
<!-- q1&#45;&gt;q2 -->
<g id="edge2" class="edge">
<title>q1&#45;&gt;q2</title>
<path fill="none" stroke="black" d="M59.5,-282.79C59.5,-271.16 59.5,-255.54 59.5,-242.23"/>
<polygon fill="black" stroke="black" points="63,-242.17 59.5,-232.17 56,-242.17 63,-242.17"/>
<text text-anchor="middle" x="63" y="-253.79" font-family="Times,serif" font-size="14.00">a</text>
</g>
<!-- q3&#45;&gt;q3 -->
<g id="edge5" class="edge">
<title>q3&#45;&gt;q3</title>
<path fill="none" stroke="black" d="M174.7,-130.32C185,-131.28 194,-128.34 194,-121.49 194,-117.11 190.3,-114.33 184.94,-113.15"/>
<polygon fill="black" stroke="black" points="184.85,-109.64 174.7,-112.67 184.53,-116.63 184.85,-109.64"/>
<text text-anchor="middle" x="197.5" y="-117.79" font-family="Times,serif" font-size="14.00">b</text>
</g>
</g>
</svg>
